<svg id="Capa_1" enable-background="new 0 0 60 41" height="512" viewBox="0 0 60 41" width="512" xmlns="http://www.w3.org/2000/svg"><path d="m42.614 23.14c-.238-.188-.548-.259-.844-.194-.6.118-1.218.101-1.81-.05l-.11-.03c-.069-.017-.136-.041-.2-.07-1.202-.423-2.128-1.398-2.49-2.62-.18-.624-.207-1.283-.08-1.92.065-.296-.007-.606-.195-.844s-.472-.38-.776-.386h-31.109c-2.209 0-4 1.791-4 4v7.5 7.402c0 2.263 1.835 4.098 4.098 4.098h33.804c2.263 0 4.098-1.835 4.098-4.098v-7.402-4.61c-.006-.304-.148-.588-.386-.776z" fill="#cad9fc"/><path d="m30.337 9.94c3.378-3.989 8.698-5.763 13.794-4.599s9.118 5.071 10.43 10.131c1.311 5.06-.307 10.429-4.196 13.922-.719.63-.895 1.68-.419 2.51.306.52.829.875 1.426.967s1.202-.09 1.65-.495c5.003-4.488 7.087-11.391 5.402-17.898s-6.856-11.531-13.408-13.028-13.392.784-17.735 5.914c-.398.47-.559 1.096-.435 1.7.124.603.517 1.117 1.068 1.392.83.409 1.832.196 2.423-.516z" fill="#e8edfc"/><path d="m39.96 22.87-.11-.03c-.069-.017-.136-.041-.2-.07-1.202-.423-2.128-1.398-2.49-2.62-.18-.624-.207-1.283-.08-1.92.065-.296-.007-.606-.195-.844s-.472-.38-.776-.386h-31.109c-2.209 0-4 1.791-4 4v7.5 7.53c0 2.192 1.777 3.97 3.97 3.97h31.06c2.193 0 3.97-1.778 3.97-3.97v-7.53-4.61c0-.09-.01-.48-.04-1.02z" fill="#e8edfc"/><path d="m37.494 14.129c2.397-1.718 5.687-1.44 7.762.657 2.074 2.097 2.317 5.39.572 7.768-.455.633-.49 1.476-.09 2.145v.005c.336.577.938.949 1.604.99.667.042 1.31-.252 1.715-.783 2.89-3.963 2.479-9.437-.97-12.924s-8.918-3.958-12.913-1.112c-.551.416-.847 1.089-.781 1.777s.484 1.292 1.104 1.596c.636.335 1.405.289 1.997-.119z" fill="#cad9fc"/><circle id="Oval" cx="41" cy="19" fill="#e8edfc" r="2"/><path d="m1.45 37.81c.558 1.093 1.586 1.87 2.79 2.11 1.248.141 2.507.168 3.76.08-1.943-.012-3.599-1.415-3.93-3.33-.1-.549-.07.822-.07-15.67 0-2.209 1.791-4 4-4h-3c-2.209 0-4 1.791-4 4 0 15.756-.186 15.583.45 16.81z" fill="#fff"/><path id="Rectangle-path" d="m0 21h2v8h-2z" fill="#fff"/><g fill="#428dff"><path d="m14 22v13c0 .552.448 1 1 1s1-.448 1-1v-13c0-.552-.448-1-1-1s-1 .448-1 1z"/><path d="m25.025 21.775-2.525 10.944-2.525-10.944c-.08-.348-.34-.627-.682-.732s-.714-.019-.975.225-.373.609-.293.957l3 13c.105.454.509.775.975.775h1c.466 0 .87-.321.975-.775l3-13c.124-.538-.212-1.076-.75-1.2s-1.076.212-1.2.75z"/><path d="m6 21c-.552 0-1 .448-1 1v13c0 .552.448 1 1 1h5c.552 0 1-.448 1-1s-.448-1-1-1h-4v-12c0-.552-.448-1-1-1z"/><path d="m35 23c.552 0 1-.448 1-1s-.448-1-1-1h-5c-.552 0-1 .448-1 1v13c0 .552.448 1 1 1h5c.552 0 1-.448 1-1s-.448-1-1-1h-4v-4h4c.552 0 1-.448 1-1s-.448-1-1-1h-4v-5z"/><path d="m1.02 26c-.552 0-1-.448-1-1s.448-1 1-1 1 .448 1 1-.448 1-1 1z"/><path d="m5 16c-2.76.003-4.997 2.24-5 5 0 .552.448 1 1 1s1-.448 1-1c0-1.657 1.343-3 3-3h30.35c.552 0 1-.448 1-1s-.448-1-1-1z"/><path d="m5 41h34c2.328.004 4.347-1.605 4.864-3.874.188-.81.136-.126.136-12.476 0-.552-.448-1-1-1s-1 .448-1 1c0 12.393.036 11.509-.084 12.023-.309 1.362-1.52 2.328-2.916 2.327h-34c-1.657 0-3-1.343-3-3v-7c0-.552-.448-1-1-1s-1 .448-1 1v7c.003 2.76 2.24 4.997 5 5z"/><path d="m51.206 33.857c.896.142 1.809-.128 2.483-.736 4.488-3.997 6.803-9.894 6.231-15.877-.704-7.615-5.907-14.065-13.201-16.364s-15.256.002-20.199 5.838c-.733.813-.965 1.961-.605 2.995s1.255 1.79 2.334 1.972c1.08.182 2.173-.238 2.852-1.097 3.138-3.696 8.074-5.337 12.801-4.256s8.458 4.705 9.677 9.398-.277 9.675-3.879 12.92c-.873.765-1.225 1.967-.902 3.082.322 1.116 1.261 1.944 2.408 2.125zm-.172-3.72c4.162-3.743 5.891-9.493 4.486-14.912s-5.713-9.602-11.17-10.85-11.154.649-14.775 4.918c-.244.296-.636.426-1.008.335s-.66-.386-.741-.761c-.063-.304.017-.62.218-.857 4.422-5.222 11.545-7.282 18.071-5.226s11.183 7.826 11.813 14.64c.512 5.354-1.558 10.631-5.574 14.208-.262.269-.652.368-1.011.258s-.625-.412-.69-.782.082-.744.381-.971z"/><path d="m44.874 25.2c.504.87 1.411 1.43 2.415 1.49s1.971-.387 2.577-1.19c3.181-4.36 2.729-10.384-1.067-14.22s-9.815-4.352-14.208-1.218c-.836.621-1.289 1.632-1.196 2.669s.721 1.951 1.655 2.412c.968.506 2.138.429 3.031-.2 1.997-1.428 4.736-1.195 6.463.551s1.931 4.487.481 6.468c-.693.952-.752 2.225-.151 3.238zm-3.057-13.154c-1.738-.203-3.489.251-4.909 1.273-.291.186-.66.199-.963.034-.307-.148-.516-.443-.554-.782s.101-.673.368-.884c3.593-2.585 8.533-2.171 11.646.974 3.114 3.146 3.476 8.089.854 11.656-.191.26-.502.403-.823.381-.361-.013-.688-.219-.854-.541-.166-.321-.145-.707.054-1.009 1.478-2.008 1.777-4.65.784-6.937s-3.127-3.874-5.603-4.165z"/><path d="m38 19c0 1.657 1.343 3 3 3s3-1.343 3-3-1.343-3-3-3-3 1.343-3 3zm4 0c0 .552-.448 1-1 1s-1-.448-1-1 .448-1 1-1 1 .448 1 1z"/></g></svg>